<svg xmlns="http://www.w3.org/2000/svg" viewBox="0 0 985 213" role="img" aria-label="Caddick">
<path fill="#fff" fill-rule="evenodd" d="M 607,67 L 607,188 L 637,188 L 637,67 Z M 704,64 L 703,65 L 699,65 L 698,66 L 695,66 L 694,67 L 689,68 L 686,70 L 684,70 L 683,71 L 680,72 L 678,74 L 677,74 L 675,76 L 674,76 L 672,78 L 671,78 L 661,88 L 661,89 L 658,92 L 658,93 L 657,94 L 657,95 L 655,97 L 655,98 L 653,101 L 653,103 L 651,106 L 651,108 L 650,109 L 650,112 L 649,113 L 649,117 L 648,118 L 648,137 L 649,138 L 649,143 L 650,144 L 650,146 L 651,147 L 652,152 L 653,153 L 656,160 L 658,162 L 658,163 L 660,165 L 660,166 L 673,179 L 674,179 L 676,181 L 677,181 L 678,182 L 679,182 L 688,187 L 690,187 L 691,188 L 694,188 L 695,189 L 698,189 L 699,190 L 705,190 L 706,191 L 725,191 L 726,190 L 732,190 L 733,189 L 736,189 L 737,188 L 740,188 L 741,187 L 743,187 L 748,184 L 750,184 L 752,182 L 753,182 L 754,181 L 755,181 L 757,179 L 758,179 L 762,175 L 763,175 L 768,170 L 768,169 L 771,166 L 768,163 L 767,163 L 765,161 L 764,161 L 762,159 L 761,159 L 759,157 L 758,157 L 756,155 L 755,155 L 753,153 L 752,153 L 747,149 L 739,157 L 738,157 L 731,161 L 729,161 L 728,162 L 725,162 L 724,163 L 707,163 L 706,162 L 703,162 L 702,161 L 700,161 L 699,160 L 694,158 L 691,155 L 690,155 L 685,150 L 685,149 L 683,147 L 683,146 L 680,141 L 680,139 L 679,138 L 679,133 L 678,132 L 678,124 L 679,123 L 679,118 L 680,117 L 680,115 L 681,114 L 683,109 L 685,107 L 685,106 L 692,99 L 693,99 L 695,97 L 696,97 L 701,94 L 703,94 L 704,93 L 707,93 L 708,92 L 725,92 L 726,93 L 729,93 L 730,94 L 732,94 L 733,95 L 738,97 L 741,100 L 742,100 L 747,105 L 748,104 L 749,104 L 750,103 L 757,100 L 759,98 L 766,95 L 768,93 L 771,92 L 772,91 L 772,90 L 769,87 L 769,86 L 761,78 L 760,78 L 754,73 L 753,73 L 744,68 L 742,68 L 741,67 L 739,67 L 738,66 L 735,66 L 734,65 L 730,65 L 729,64 L 720,64 L 719,63 L 714,63 L 713,64 Z M 209,75 L 200,84 L 200,85 L 197,88 L 196,91 L 194,93 L 194,94 L 192,97 L 192,99 L 191,100 L 191,101 L 190,102 L 190,104 L 189,105 L 189,108 L 188,109 L 188,112 L 187,113 L 187,121 L 186,122 L 186,133 L 187,134 L 187,141 L 188,142 L 188,145 L 189,146 L 189,149 L 190,150 L 190,152 L 192,155 L 192,157 L 193,158 L 193,159 L 195,161 L 195,162 L 196,163 L 196,164 L 198,166 L 198,167 L 202,171 L 202,172 L 207,177 L 208,177 L 212,181 L 213,181 L 215,183 L 216,183 L 217,184 L 218,184 L 219,185 L 220,185 L 221,186 L 222,186 L 225,188 L 227,188 L 228,189 L 230,189 L 231,190 L 236,190 L 237,191 L 251,191 L 252,190 L 256,190 L 257,189 L 260,189 L 261,188 L 263,188 L 264,187 L 265,187 L 266,186 L 269,185 L 271,183 L 272,183 L 274,181 L 275,181 L 279,177 L 280,177 L 281,178 L 281,187 L 282,188 L 312,188 L 312,67 L 281,67 L 281,77 L 280,78 L 279,78 L 274,73 L 273,73 L 271,71 L 270,71 L 269,70 L 268,70 L 267,69 L 266,69 L 265,68 L 264,68 L 261,66 L 258,66 L 257,65 L 254,65 L 253,64 L 246,64 L 245,63 L 241,63 L 240,64 L 233,64 L 232,65 L 228,65 L 227,66 L 225,66 L 222,68 L 220,68 L 219,69 L 218,69 L 216,71 L 213,72 L 210,75 Z M 241,92 L 247,92 L 248,91 L 251,91 L 252,92 L 258,92 L 259,93 L 261,93 L 262,94 L 263,94 L 264,95 L 265,95 L 266,96 L 267,96 L 269,98 L 270,98 L 276,104 L 276,105 L 278,107 L 278,108 L 279,109 L 279,110 L 280,111 L 280,112 L 281,113 L 281,116 L 282,117 L 282,121 L 283,122 L 283,132 L 282,133 L 282,138 L 281,139 L 281,141 L 280,142 L 280,143 L 279,144 L 279,145 L 278,146 L 278,147 L 277,148 L 277,149 L 268,158 L 267,158 L 265,160 L 264,160 L 263,161 L 261,161 L 260,162 L 257,162 L 256,163 L 243,163 L 242,162 L 239,162 L 238,161 L 237,161 L 236,160 L 235,160 L 234,159 L 233,159 L 231,157 L 230,157 L 224,151 L 224,150 L 222,148 L 222,147 L 220,145 L 220,144 L 219,143 L 219,141 L 218,140 L 218,137 L 217,136 L 217,130 L 216,129 L 216,126 L 217,125 L 217,118 L 218,117 L 218,114 L 219,113 L 219,112 L 220,111 L 220,110 L 221,109 L 221,108 L 222,107 L 222,106 L 232,96 L 233,96 L 234,95 L 235,95 L 236,94 L 237,94 L 238,93 L 240,93 Z M 789,20 L 789,188 L 819,188 L 819,134 L 820,133 L 837,151 L 837,152 L 849,164 L 849,165 L 861,177 L 861,178 L 871,188 L 908,188 L 908,187 L 899,178 L 899,177 L 886,164 L 886,163 L 850,125 L 902,67 L 863,67 L 863,68 L 846,86 L 846,87 L 829,105 L 829,106 L 821,114 L 820,116 L 819,115 L 819,20 Z M 591,20 L 560,20 L 560,77 L 559,78 L 558,78 L 553,73 L 552,73 L 550,71 L 549,71 L 542,67 L 540,67 L 539,66 L 537,66 L 536,65 L 533,65 L 532,64 L 525,64 L 524,63 L 520,63 L 519,64 L 512,64 L 511,65 L 507,65 L 506,66 L 504,66 L 503,67 L 502,67 L 501,68 L 499,68 L 498,69 L 497,69 L 495,71 L 492,72 L 489,75 L 488,75 L 479,84 L 479,85 L 476,88 L 476,89 L 474,91 L 474,92 L 470,99 L 470,101 L 469,102 L 469,104 L 468,105 L 468,107 L 467,108 L 467,112 L 466,113 L 466,120 L 465,121 L 465,134 L 466,135 L 466,141 L 467,142 L 467,146 L 468,147 L 468,149 L 469,150 L 469,152 L 471,155 L 471,157 L 472,158 L 473,161 L 477,166 L 477,167 L 486,177 L 487,177 L 491,181 L 492,181 L 497,185 L 498,185 L 499,186 L 501,186 L 504,188 L 506,188 L 507,189 L 509,189 L 510,190 L 515,190 L 516,191 L 530,191 L 531,190 L 535,190 L 536,189 L 539,189 L 540,188 L 542,188 L 543,187 L 548,185 L 550,183 L 551,183 L 553,181 L 554,181 L 559,176 L 560,177 L 560,188 L 591,188 Z M 520,92 L 526,92 L 527,91 L 530,91 L 531,92 L 537,92 L 538,93 L 540,93 L 541,94 L 542,94 L 543,95 L 544,95 L 545,96 L 546,96 L 548,98 L 549,98 L 554,103 L 554,104 L 557,107 L 557,108 L 558,109 L 558,110 L 559,111 L 559,113 L 560,114 L 560,116 L 561,117 L 561,122 L 562,123 L 562,131 L 561,132 L 561,137 L 560,138 L 560,141 L 559,142 L 559,143 L 558,144 L 558,145 L 557,146 L 557,147 L 556,148 L 556,149 L 547,158 L 546,158 L 544,160 L 542,160 L 541,161 L 540,161 L 539,162 L 536,162 L 535,163 L 522,163 L 521,162 L 518,162 L 517,161 L 516,161 L 515,160 L 514,160 L 513,159 L 512,159 L 510,157 L 509,157 L 503,151 L 503,150 L 500,147 L 500,146 L 499,145 L 499,144 L 498,143 L 498,141 L 497,140 L 497,137 L 496,136 L 496,131 L 495,130 L 495,125 L 496,124 L 496,118 L 497,117 L 497,114 L 498,113 L 498,112 L 499,111 L 499,110 L 500,109 L 500,108 L 501,107 L 501,106 L 504,103 L 504,102 L 506,100 L 507,100 L 511,96 L 512,96 L 513,95 L 514,95 L 515,94 L 516,94 L 517,93 L 519,93 Z M 451,20 L 421,20 L 421,78 L 420,79 L 412,72 L 409,71 L 407,69 L 406,69 L 405,68 L 403,68 L 402,67 L 401,67 L 400,66 L 398,66 L 397,65 L 394,65 L 393,64 L 385,64 L 384,63 L 381,63 L 380,64 L 372,64 L 371,65 L 368,65 L 367,66 L 365,66 L 364,67 L 362,67 L 361,68 L 360,68 L 359,69 L 354,71 L 352,73 L 351,73 L 346,78 L 345,78 L 343,80 L 343,81 L 338,86 L 338,87 L 334,92 L 334,93 L 331,98 L 331,100 L 329,103 L 329,106 L 328,107 L 328,110 L 327,111 L 327,115 L 326,116 L 326,138 L 327,139 L 327,143 L 328,144 L 328,147 L 329,148 L 329,151 L 331,154 L 331,156 L 332,157 L 333,160 L 335,162 L 336,165 L 339,168 L 339,169 L 350,180 L 351,180 L 356,184 L 357,184 L 364,188 L 366,188 L 367,189 L 370,189 L 371,190 L 375,190 L 376,191 L 391,191 L 392,190 L 396,190 L 397,189 L 399,189 L 400,188 L 402,188 L 403,187 L 404,187 L 405,186 L 410,184 L 412,182 L 413,182 L 416,179 L 417,179 L 420,176 L 421,177 L 421,188 L 451,188 Z M 381,92 L 386,92 L 387,91 L 391,91 L 392,92 L 397,92 L 398,93 L 400,93 L 401,94 L 403,94 L 404,95 L 405,95 L 407,97 L 408,97 L 416,105 L 416,106 L 418,108 L 418,109 L 419,110 L 419,111 L 420,112 L 420,114 L 421,115 L 421,118 L 422,119 L 422,135 L 421,136 L 421,139 L 420,140 L 420,142 L 419,143 L 419,144 L 418,145 L 418,146 L 417,147 L 417,148 L 415,150 L 415,151 L 409,157 L 408,157 L 406,159 L 405,159 L 404,160 L 403,160 L 402,161 L 401,161 L 400,162 L 397,162 L 396,163 L 382,163 L 381,162 L 379,162 L 378,161 L 376,161 L 375,160 L 374,160 L 372,158 L 371,158 L 362,149 L 362,148 L 360,146 L 360,145 L 359,144 L 359,142 L 358,141 L 358,139 L 357,138 L 357,135 L 356,134 L 356,120 L 357,119 L 357,116 L 358,115 L 358,113 L 359,112 L 359,111 L 360,110 L 360,109 L 361,108 L 361,107 L 363,105 L 363,104 L 370,97 L 371,97 L 373,95 L 374,95 L 375,94 L 377,94 L 378,93 L 380,93 Z M 90,21 L 89,22 L 86,22 L 85,23 L 82,23 L 81,24 L 73,26 L 61,32 L 59,34 L 52,38 L 41,48 L 41,49 L 36,54 L 36,55 L 32,60 L 26,72 L 26,74 L 23,81 L 23,84 L 22,85 L 22,89 L 21,90 L 21,97 L 20,98 L 20,113 L 21,114 L 21,122 L 22,123 L 22,127 L 23,128 L 24,135 L 26,138 L 27,143 L 35,157 L 38,160 L 38,161 L 51,174 L 52,174 L 61,181 L 69,185 L 71,185 L 74,187 L 80,188 L 84,190 L 88,190 L 89,191 L 96,191 L 97,192 L 118,192 L 119,191 L 125,191 L 126,190 L 130,190 L 131,189 L 134,189 L 135,188 L 143,186 L 155,180 L 164,173 L 165,173 L 169,169 L 170,169 L 178,161 L 178,160 L 158,139 L 157,139 L 146,149 L 142,151 L 139,154 L 131,158 L 129,158 L 126,160 L 123,160 L 122,161 L 117,161 L 116,162 L 99,162 L 98,161 L 94,161 L 93,160 L 87,159 L 75,153 L 63,142 L 63,141 L 59,136 L 53,122 L 53,119 L 52,118 L 52,111 L 51,110 L 51,101 L 52,100 L 52,94 L 53,93 L 53,90 L 54,89 L 55,84 L 59,76 L 62,73 L 62,72 L 74,60 L 82,55 L 84,55 L 87,53 L 89,53 L 93,51 L 97,51 L 98,50 L 116,50 L 117,51 L 121,51 L 122,52 L 128,53 L 131,55 L 133,55 L 137,57 L 139,59 L 146,63 L 157,73 L 158,73 L 169,62 L 170,62 L 179,53 L 179,52 L 164,38 L 163,38 L 155,32 L 145,27 L 143,27 L 140,25 L 138,25 L 134,23 L 131,23 L 130,22 L 120,21 L 119,20 L 96,20 L 95,21 Z"/>
<path fill="#febd11" fill-rule="evenodd" d="M 941,151 L 940,152 L 938,152 L 937,153 L 936,153 L 935,154 L 934,154 L 928,160 L 928,161 L 927,162 L 927,163 L 926,164 L 926,167 L 925,168 L 925,173 L 926,174 L 926,177 L 927,178 L 927,179 L 928,180 L 928,181 L 934,187 L 935,187 L 936,188 L 937,188 L 938,189 L 941,189 L 942,190 L 947,190 L 948,189 L 951,189 L 952,188 L 953,188 L 954,187 L 955,187 L 957,185 L 958,185 L 959,184 L 959,183 L 961,181 L 961,180 L 962,179 L 962,178 L 963,177 L 963,175 L 964,174 L 964,167 L 963,166 L 963,163 L 962,162 L 962,161 L 960,159 L 960,158 L 957,155 L 956,155 L 954,153 L 952,153 L 951,152 L 949,152 L 948,151 Z"/>
</svg>